<mxfile host="Electron" agent="Mozilla/5.0 (Windows NT 10.0; Win64; x64) AppleWebKit/537.36 (KHTML, like Gecko) draw.io/28.0.4 Chrome/138.0.7204.97 Electron/37.2.1 Safari/537.36" version="28.0.4">
  <diagram name="Page-1" id="e-nppYxPsqjDtEgeQdxq">
    <mxGraphModel dx="1011" dy="501" grid="1" gridSize="10" guides="1" tooltips="1" connect="1" arrows="1" fold="1" page="1" pageScale="1" pageWidth="850" pageHeight="1100" math="0" shadow="0">
      <root>
        <mxCell id="0" />
        <mxCell id="1" parent="0" />
        <mxCell id="fjkHMoL9fjXfFA5Z8NrR-1" value="Review_and_Merge" style="whiteSpace=wrap;strokeWidth=2;" vertex="1" parent="1">
          <mxGeometry x="460" y="1707" width="477" height="807" as="geometry" />
        </mxCell>
        <mxCell id="fjkHMoL9fjXfFA5Z8NrR-2" value="Autofix_and_Patch_Engine" style="whiteSpace=wrap;strokeWidth=2;" vertex="1" parent="1">
          <mxGeometry x="20" y="777" width="1105" height="880" as="geometry" />
        </mxCell>
        <mxCell id="fjkHMoL9fjXfFA5Z8NrR-3" value="🏁 Start" style="ellipse;aspect=fixed;strokeWidth=2;whiteSpace=wrap;" vertex="1" parent="1">
          <mxGeometry x="393" y="20" width="77" height="77" as="geometry" />
        </mxCell>
        <mxCell id="fjkHMoL9fjXfFA5Z8NrR-4" value="🔃 Clone Target Repository" style="rounded=1;whiteSpace=wrap;arcSize=50;strokeWidth=2;" vertex="1" parent="1">
          <mxGeometry x="320" y="147" width="221" height="39" as="geometry" />
        </mxCell>
        <mxCell id="fjkHMoL9fjXfFA5Z8NrR-5" value="📄 Load SonarQube Vulnerability Report" style="rounded=1;whiteSpace=wrap;arcSize=50;strokeWidth=2;" vertex="1" parent="1">
          <mxGeometry x="316" y="236" width="231" height="63" as="geometry" />
        </mxCell>
        <mxCell id="fjkHMoL9fjXfFA5Z8NrR-6" value="📍 Extract File Path, Line No., Rule Key" style="rounded=1;whiteSpace=wrap;arcSize=50;strokeWidth=2;" vertex="1" parent="1">
          <mxGeometry x="316" y="349" width="231" height="63" as="geometry" />
        </mxCell>
        <mxCell id="fjkHMoL9fjXfFA5Z8NrR-7" value="📌 Extract Vulnerable Code Snippet" style="rounded=1;whiteSpace=wrap;arcSize=50;strokeWidth=2;" vertex="1" parent="1">
          <mxGeometry x="316" y="462" width="231" height="63" as="geometry" />
        </mxCell>
        <mxCell id="fjkHMoL9fjXfFA5Z8NrR-8" value="🔎 Map Sonar Rule to CWE/CVE" style="rounded=1;whiteSpace=wrap;arcSize=50;strokeWidth=2;" vertex="1" parent="1">
          <mxGeometry x="316" y="575" width="231" height="63" as="geometry" />
        </mxCell>
        <mxCell id="fjkHMoL9fjXfFA5Z8NrR-9" value="🧠 CVE-to-Rule Mapping" style="rounded=1;whiteSpace=wrap;arcSize=50;strokeWidth=2;" vertex="1" parent="1">
          <mxGeometry x="331" y="688" width="201" height="39" as="geometry" />
        </mxCell>
        <mxCell id="fjkHMoL9fjXfFA5Z8NrR-10" value="📘 CWE → Fixer Mapping" style="rounded=1;whiteSpace=wrap;arcSize=50;strokeWidth=2;" vertex="1" parent="1">
          <mxGeometry x="327" y="802" width="209" height="39" as="geometry" />
        </mxCell>
        <mxCell id="fjkHMoL9fjXfFA5Z8NrR-11" value="🎯 Match Found &amp; Eligible?" style="rhombus;strokeWidth=2;whiteSpace=wrap;" vertex="1" parent="1">
          <mxGeometry x="305" y="891" width="251" height="251" as="geometry" />
        </mxCell>
        <mxCell id="fjkHMoL9fjXfFA5Z8NrR-12" value="📋 Log + Notify Developer&#xa;(with vulnerable snippet)" style="whiteSpace=wrap;strokeWidth=2;" vertex="1" parent="1">
          <mxGeometry x="55" y="1215" width="260" height="102" as="geometry" />
        </mxCell>
        <mxCell id="fjkHMoL9fjXfFA5Z8NrR-13" value="⚙️ Choose Fixer Engine" style="rounded=1;whiteSpace=wrap;arcSize=50;strokeWidth=2;" vertex="1" parent="1">
          <mxGeometry x="472" y="1246" width="195" height="39" as="geometry" />
        </mxCell>
        <mxCell id="fjkHMoL9fjXfFA5Z8NrR-14" value="🛠 Semgrep Fixer" style="whiteSpace=wrap;strokeWidth=2;" vertex="1" parent="1">
          <mxGeometry x="57" y="1383" width="183" height="54" as="geometry" />
        </mxCell>
        <mxCell id="fjkHMoL9fjXfFA5Z8NrR-15" value="☕ JavaParser Fixer&#xa;(Uses file + line + snippet)" style="rounded=1;whiteSpace=wrap;arcSize=50;strokeWidth=2;" vertex="1" parent="1">
          <mxGeometry x="316" y="1367" width="237" height="87" as="geometry" />
        </mxCell>
        <mxCell id="fjkHMoL9fjXfFA5Z8NrR-16" value="📦 Snyk Patch Fixer" style="whiteSpace=wrap;strokeWidth=2;" vertex="1" parent="1">
          <mxGeometry x="603" y="1383" width="204" height="54" as="geometry" />
        </mxCell>
        <mxCell id="fjkHMoL9fjXfFA5Z8NrR-17" value="🤖 GPT Fixer (Fallback)" style="whiteSpace=wrap;strokeWidth=2;" vertex="1" parent="1">
          <mxGeometry x="857" y="1383" width="232" height="54" as="geometry" />
        </mxCell>
        <mxCell id="fjkHMoL9fjXfFA5Z8NrR-18" value="🧪 Validate Fix" style="rounded=1;whiteSpace=wrap;arcSize=50;strokeWidth=2;" vertex="1" parent="1">
          <mxGeometry x="627" y="1504" width="136" height="39" as="geometry" />
        </mxCell>
        <mxCell id="fjkHMoL9fjXfFA5Z8NrR-19" value="📬 Create Pull Request" style="rounded=1;whiteSpace=wrap;arcSize=50;strokeWidth=2;" vertex="1" parent="1">
          <mxGeometry x="599" y="1593" width="193" height="39" as="geometry" />
        </mxCell>
        <mxCell id="fjkHMoL9fjXfFA5Z8NrR-20" value="🔁 PR Review" style="rounded=1;whiteSpace=wrap;arcSize=50;strokeWidth=2;" vertex="1" parent="1">
          <mxGeometry x="633" y="1732" width="125" height="39" as="geometry" />
        </mxCell>
        <mxCell id="fjkHMoL9fjXfFA5Z8NrR-21" value="✅ Approved?" style="rhombus;strokeWidth=2;whiteSpace=wrap;" vertex="1" parent="1">
          <mxGeometry x="618" y="1821" width="153" height="153" as="geometry" />
        </mxCell>
        <mxCell id="fjkHMoL9fjXfFA5Z8NrR-22" value="🛑 Request Changes" style="rounded=1;whiteSpace=wrap;arcSize=50;strokeWidth=2;" vertex="1" parent="1">
          <mxGeometry x="495" y="2047" width="172" height="39" as="geometry" />
        </mxCell>
        <mxCell id="fjkHMoL9fjXfFA5Z8NrR-23" value="🚀 Merge + Trigger CI" style="rounded=1;whiteSpace=wrap;arcSize=50;strokeWidth=2;" vertex="1" parent="1">
          <mxGeometry x="716" y="2047" width="181" height="39" as="geometry" />
        </mxCell>
        <mxCell id="fjkHMoL9fjXfFA5Z8NrR-24" value="🧪 CI: Test, Lint, Build" style="rounded=1;whiteSpace=wrap;arcSize=50;strokeWidth=2;" vertex="1" parent="1">
          <mxGeometry x="712" y="2136" width="190" height="39" as="geometry" />
        </mxCell>
        <mxCell id="fjkHMoL9fjXfFA5Z8NrR-25" value="✅ CI Passed?" style="rhombus;strokeWidth=2;whiteSpace=wrap;" vertex="1" parent="1">
          <mxGeometry x="730" y="2225" width="153" height="153" as="geometry" />
        </mxCell>
        <mxCell id="fjkHMoL9fjXfFA5Z8NrR-26" value="❗ Alert Developer" style="rounded=1;whiteSpace=wrap;arcSize=50;strokeWidth=2;" vertex="1" parent="1">
          <mxGeometry x="495" y="2450" width="163" height="39" as="geometry" />
        </mxCell>
        <mxCell id="fjkHMoL9fjXfFA5Z8NrR-27" value="✅ Done" style="rounded=1;whiteSpace=wrap;arcSize=50;strokeWidth=2;" vertex="1" parent="1">
          <mxGeometry x="763" y="2450" width="87" height="39" as="geometry" />
        </mxCell>
        <mxCell id="fjkHMoL9fjXfFA5Z8NrR-28" value="" style="curved=1;startArrow=none;endArrow=block;exitX=0.49;exitY=1;entryX=0.5;entryY=-0.01;rounded=0;" edge="1" parent="1" source="fjkHMoL9fjXfFA5Z8NrR-3" target="fjkHMoL9fjXfFA5Z8NrR-4">
          <mxGeometry relative="1" as="geometry">
            <Array as="points" />
          </mxGeometry>
        </mxCell>
        <mxCell id="fjkHMoL9fjXfFA5Z8NrR-29" value="" style="curved=1;startArrow=none;endArrow=block;exitX=0.5;exitY=0.99;entryX=0.5;entryY=0;rounded=0;" edge="1" parent="1" source="fjkHMoL9fjXfFA5Z8NrR-4" target="fjkHMoL9fjXfFA5Z8NrR-5">
          <mxGeometry relative="1" as="geometry">
            <Array as="points" />
          </mxGeometry>
        </mxCell>
        <mxCell id="fjkHMoL9fjXfFA5Z8NrR-30" value="" style="curved=1;startArrow=none;endArrow=block;exitX=0.5;exitY=1;entryX=0.5;entryY=0;rounded=0;" edge="1" parent="1" source="fjkHMoL9fjXfFA5Z8NrR-5" target="fjkHMoL9fjXfFA5Z8NrR-6">
          <mxGeometry relative="1" as="geometry">
            <Array as="points" />
          </mxGeometry>
        </mxCell>
        <mxCell id="fjkHMoL9fjXfFA5Z8NrR-31" value="" style="curved=1;startArrow=none;endArrow=block;exitX=0.5;exitY=1;entryX=0.5;entryY=0;rounded=0;" edge="1" parent="1" source="fjkHMoL9fjXfFA5Z8NrR-6" target="fjkHMoL9fjXfFA5Z8NrR-7">
          <mxGeometry relative="1" as="geometry">
            <Array as="points" />
          </mxGeometry>
        </mxCell>
        <mxCell id="fjkHMoL9fjXfFA5Z8NrR-32" value="" style="curved=1;startArrow=none;endArrow=block;exitX=0.5;exitY=1;entryX=0.5;entryY=0;rounded=0;" edge="1" parent="1" source="fjkHMoL9fjXfFA5Z8NrR-7" target="fjkHMoL9fjXfFA5Z8NrR-8">
          <mxGeometry relative="1" as="geometry">
            <Array as="points" />
          </mxGeometry>
        </mxCell>
        <mxCell id="fjkHMoL9fjXfFA5Z8NrR-33" value="" style="curved=1;startArrow=none;endArrow=block;exitX=0.5;exitY=1;entryX=0.5;entryY=-0.01;rounded=0;" edge="1" parent="1" source="fjkHMoL9fjXfFA5Z8NrR-8" target="fjkHMoL9fjXfFA5Z8NrR-9">
          <mxGeometry relative="1" as="geometry">
            <Array as="points" />
          </mxGeometry>
        </mxCell>
        <mxCell id="fjkHMoL9fjXfFA5Z8NrR-34" value="" style="curved=1;startArrow=none;endArrow=block;exitX=0.5;exitY=0.99;entryX=0.5;entryY=-0.01;rounded=0;" edge="1" parent="1" source="fjkHMoL9fjXfFA5Z8NrR-9" target="fjkHMoL9fjXfFA5Z8NrR-10">
          <mxGeometry relative="1" as="geometry">
            <Array as="points" />
          </mxGeometry>
        </mxCell>
        <mxCell id="fjkHMoL9fjXfFA5Z8NrR-35" value="" style="curved=1;startArrow=none;endArrow=block;exitX=0.5;exitY=0.99;entryX=0.5;entryY=0;rounded=0;" edge="1" parent="1" source="fjkHMoL9fjXfFA5Z8NrR-10" target="fjkHMoL9fjXfFA5Z8NrR-11">
          <mxGeometry relative="1" as="geometry">
            <Array as="points" />
          </mxGeometry>
        </mxCell>
        <mxCell id="fjkHMoL9fjXfFA5Z8NrR-36" value="No" style="curved=1;startArrow=none;endArrow=block;exitX=0;exitY=0.83;entryX=0.5;entryY=0;rounded=0;" edge="1" parent="1" source="fjkHMoL9fjXfFA5Z8NrR-11" target="fjkHMoL9fjXfFA5Z8NrR-12">
          <mxGeometry relative="1" as="geometry">
            <Array as="points">
              <mxPoint x="185" y="1179" />
            </Array>
          </mxGeometry>
        </mxCell>
        <mxCell id="fjkHMoL9fjXfFA5Z8NrR-37" value="Yes" style="curved=1;startArrow=none;endArrow=block;exitX=0.93;exitY=1;entryX=0.5;entryY=0.01;rounded=0;" edge="1" parent="1" source="fjkHMoL9fjXfFA5Z8NrR-11" target="fjkHMoL9fjXfFA5Z8NrR-13">
          <mxGeometry relative="1" as="geometry">
            <Array as="points">
              <mxPoint x="570" y="1179" />
            </Array>
          </mxGeometry>
        </mxCell>
        <mxCell id="fjkHMoL9fjXfFA5Z8NrR-38" value="" style="curved=1;startArrow=none;endArrow=block;exitX=0;exitY=0.96;entryX=0.5;entryY=0.01;rounded=0;" edge="1" parent="1" source="fjkHMoL9fjXfFA5Z8NrR-13" target="fjkHMoL9fjXfFA5Z8NrR-14">
          <mxGeometry relative="1" as="geometry">
            <Array as="points">
              <mxPoint x="149" y="1342" />
            </Array>
          </mxGeometry>
        </mxCell>
        <mxCell id="fjkHMoL9fjXfFA5Z8NrR-39" value="" style="curved=1;startArrow=none;endArrow=block;exitX=0.32;exitY=1.01;entryX=0.5;entryY=0;rounded=0;" edge="1" parent="1" source="fjkHMoL9fjXfFA5Z8NrR-13" target="fjkHMoL9fjXfFA5Z8NrR-15">
          <mxGeometry relative="1" as="geometry">
            <Array as="points">
              <mxPoint x="435" y="1342" />
            </Array>
          </mxGeometry>
        </mxCell>
        <mxCell id="fjkHMoL9fjXfFA5Z8NrR-40" value="" style="curved=1;startArrow=none;endArrow=block;exitX=0.68;exitY=1.01;entryX=0.5;entryY=0.01;rounded=0;" edge="1" parent="1" source="fjkHMoL9fjXfFA5Z8NrR-13" target="fjkHMoL9fjXfFA5Z8NrR-16">
          <mxGeometry relative="1" as="geometry">
            <Array as="points">
              <mxPoint x="705" y="1342" />
            </Array>
          </mxGeometry>
        </mxCell>
        <mxCell id="fjkHMoL9fjXfFA5Z8NrR-41" value="" style="curved=1;startArrow=none;endArrow=block;exitX=1;exitY=0.98;entryX=0.5;entryY=0.01;rounded=0;" edge="1" parent="1" source="fjkHMoL9fjXfFA5Z8NrR-13" target="fjkHMoL9fjXfFA5Z8NrR-17">
          <mxGeometry relative="1" as="geometry">
            <Array as="points">
              <mxPoint x="973" y="1342" />
            </Array>
          </mxGeometry>
        </mxCell>
        <mxCell id="fjkHMoL9fjXfFA5Z8NrR-42" value="" style="curved=1;startArrow=none;endArrow=block;exitX=0.5;exitY=1.01;entryX=0;entryY=0.35;rounded=0;" edge="1" parent="1" source="fjkHMoL9fjXfFA5Z8NrR-14" target="fjkHMoL9fjXfFA5Z8NrR-18">
          <mxGeometry relative="1" as="geometry">
            <Array as="points">
              <mxPoint x="149" y="1479" />
            </Array>
          </mxGeometry>
        </mxCell>
        <mxCell id="fjkHMoL9fjXfFA5Z8NrR-43" value="" style="curved=1;startArrow=none;endArrow=block;exitX=0.5;exitY=1;entryX=0;entryY=0.2;rounded=0;" edge="1" parent="1" source="fjkHMoL9fjXfFA5Z8NrR-15" target="fjkHMoL9fjXfFA5Z8NrR-18">
          <mxGeometry relative="1" as="geometry">
            <Array as="points">
              <mxPoint x="435" y="1479" />
            </Array>
          </mxGeometry>
        </mxCell>
        <mxCell id="fjkHMoL9fjXfFA5Z8NrR-44" value="" style="curved=1;startArrow=none;endArrow=block;exitX=0.5;exitY=1.01;entryX=0.53;entryY=0;rounded=0;" edge="1" parent="1" source="fjkHMoL9fjXfFA5Z8NrR-16" target="fjkHMoL9fjXfFA5Z8NrR-18">
          <mxGeometry relative="1" as="geometry">
            <Array as="points">
              <mxPoint x="705" y="1479" />
            </Array>
          </mxGeometry>
        </mxCell>
        <mxCell id="fjkHMoL9fjXfFA5Z8NrR-45" value="" style="curved=1;startArrow=none;endArrow=block;exitX=0.5;exitY=1.01;entryX=1;entryY=0.22;rounded=0;" edge="1" parent="1" source="fjkHMoL9fjXfFA5Z8NrR-17" target="fjkHMoL9fjXfFA5Z8NrR-18">
          <mxGeometry relative="1" as="geometry">
            <Array as="points">
              <mxPoint x="973" y="1479" />
            </Array>
          </mxGeometry>
        </mxCell>
        <mxCell id="fjkHMoL9fjXfFA5Z8NrR-46" value="" style="curved=1;startArrow=none;endArrow=block;exitX=0.5;exitY=1;entryX=0.5;entryY=0;rounded=0;" edge="1" parent="1" source="fjkHMoL9fjXfFA5Z8NrR-18" target="fjkHMoL9fjXfFA5Z8NrR-19">
          <mxGeometry relative="1" as="geometry">
            <Array as="points" />
          </mxGeometry>
        </mxCell>
        <mxCell id="fjkHMoL9fjXfFA5Z8NrR-47" value="" style="curved=1;startArrow=none;endArrow=block;exitX=0.5;exitY=1;entryX=0.5;entryY=0;rounded=0;" edge="1" parent="1" source="fjkHMoL9fjXfFA5Z8NrR-19" target="fjkHMoL9fjXfFA5Z8NrR-20">
          <mxGeometry relative="1" as="geometry">
            <Array as="points" />
          </mxGeometry>
        </mxCell>
        <mxCell id="fjkHMoL9fjXfFA5Z8NrR-48" value="" style="curved=1;startArrow=none;endArrow=block;exitX=0.5;exitY=1;entryX=0.5;entryY=0;rounded=0;" edge="1" parent="1" source="fjkHMoL9fjXfFA5Z8NrR-20" target="fjkHMoL9fjXfFA5Z8NrR-21">
          <mxGeometry relative="1" as="geometry">
            <Array as="points" />
          </mxGeometry>
        </mxCell>
        <mxCell id="fjkHMoL9fjXfFA5Z8NrR-49" value="No" style="curved=1;startArrow=none;endArrow=block;exitX=0;exitY=0.99;entryX=0.5;entryY=0;rounded=0;" edge="1" parent="1" source="fjkHMoL9fjXfFA5Z8NrR-21" target="fjkHMoL9fjXfFA5Z8NrR-22">
          <mxGeometry relative="1" as="geometry">
            <Array as="points">
              <mxPoint x="580" y="2011" />
            </Array>
          </mxGeometry>
        </mxCell>
        <mxCell id="fjkHMoL9fjXfFA5Z8NrR-50" value="Yes" style="curved=1;startArrow=none;endArrow=block;exitX=1;exitY=1;entryX=0.5;entryY=0;rounded=0;" edge="1" parent="1" source="fjkHMoL9fjXfFA5Z8NrR-21" target="fjkHMoL9fjXfFA5Z8NrR-23">
          <mxGeometry relative="1" as="geometry">
            <Array as="points">
              <mxPoint x="807" y="2011" />
            </Array>
          </mxGeometry>
        </mxCell>
        <mxCell id="fjkHMoL9fjXfFA5Z8NrR-51" value="" style="curved=1;startArrow=none;endArrow=block;exitX=0.5;exitY=1;entryX=0.5;entryY=0;rounded=0;" edge="1" parent="1" source="fjkHMoL9fjXfFA5Z8NrR-23" target="fjkHMoL9fjXfFA5Z8NrR-24">
          <mxGeometry relative="1" as="geometry">
            <Array as="points" />
          </mxGeometry>
        </mxCell>
        <mxCell id="fjkHMoL9fjXfFA5Z8NrR-52" value="" style="curved=1;startArrow=none;endArrow=block;exitX=0.5;exitY=1;entryX=0.5;entryY=0;rounded=0;" edge="1" parent="1" source="fjkHMoL9fjXfFA5Z8NrR-24" target="fjkHMoL9fjXfFA5Z8NrR-25">
          <mxGeometry relative="1" as="geometry">
            <Array as="points" />
          </mxGeometry>
        </mxCell>
        <mxCell id="fjkHMoL9fjXfFA5Z8NrR-53" value="No" style="curved=1;startArrow=none;endArrow=block;exitX=0;exitY=0.74;entryX=0.5;entryY=0.01;rounded=0;" edge="1" parent="1" source="fjkHMoL9fjXfFA5Z8NrR-25" target="fjkHMoL9fjXfFA5Z8NrR-26">
          <mxGeometry relative="1" as="geometry">
            <Array as="points">
              <mxPoint x="576" y="2414" />
            </Array>
          </mxGeometry>
        </mxCell>
        <mxCell id="fjkHMoL9fjXfFA5Z8NrR-54" value="Yes" style="curved=1;startArrow=none;endArrow=block;exitX=0.5;exitY=1;entryX=0.5;entryY=0.01;rounded=0;" edge="1" parent="1" source="fjkHMoL9fjXfFA5Z8NrR-25" target="fjkHMoL9fjXfFA5Z8NrR-27">
          <mxGeometry relative="1" as="geometry">
            <Array as="points" />
          </mxGeometry>
        </mxCell>
      </root>
    </mxGraphModel>
  </diagram>
</mxfile>
